<svg width="127" height="132" viewBox="0 0 127 132" fill="none" xmlns="http://www.w3.org/2000/svg">
<path d="M43.7514 79.2899C43.8409 79.2899 43.9315 79.2877 44.0227 79.282C46.5366 79.1343 48.4554 76.9767 48.3084 74.4622C48.0849 70.6713 47.9846 67.2185 47.9846 64.0758C47.9658 50.2702 49.9781 42.5152 51.955 38.4689V123.979C51.955 127.872 55.1114 131.026 59.0026 131.026C62.8949 131.026 66.0513 127.872 66.0513 123.979V72.5194H68.6935V123.979C68.6935 127.872 71.8499 131.026 75.7411 131.026C79.6334 131.026 82.7898 127.872 82.7898 123.979V53.5988C79.8124 54.2748 76.408 54.8814 72.4963 55.4372C72.2216 55.4754 71.9474 55.4942 71.68 55.4942C68.8007 55.4942 66.3278 53.3428 65.9259 50.488C65.7098 48.9505 66.1049 47.4194 67.0392 46.1789C67.9747 44.9385 69.336 44.1364 70.8751 43.921C75.8562 43.2403 79.8078 42.4206 82.7892 41.6082V35.2533C84.7177 36.0251 86.8053 37.0546 88.3495 38.1144C89.2816 38.7414 90.005 39.385 90.3727 39.824C90.2381 39.9334 90.062 40.0623 89.8379 40.2053C89.3916 40.5086 88.7611 40.8404 87.9619 41.1875C86.1104 41.9919 83.2954 42.8812 79.4231 43.7163C79.622 44.129 79.8871 44.7139 80.1829 45.4396C81.4114 45.5593 82.429 46.3175 82.6473 47.4125C82.8251 48.3109 82.4221 49.2099 81.6708 49.825C81.8948 50.6316 82.1063 51.5015 82.299 52.4227C86.3139 51.522 89.4856 50.5119 92.0287 49.3581C92.3103 49.2282 92.5833 49.0965 92.8507 48.9631C94.6572 48.059 96.1564 47.0431 97.3872 45.724C98.7958 44.2453 99.7899 42.1207 99.7654 39.9773C99.7654 38.3213 99.241 36.8489 98.5609 35.6688C97.345 33.5973 95.7049 32.1727 93.9537 30.9032C91.315 29.0311 88.3034 27.5992 85.5546 26.5406C84.1796 26.015 82.877 25.592 81.6924 25.283C80.7815 25.0567 80.0056 24.8743 79.1329 24.7894C78.8889 24.7472 78.6398 24.721 78.3833 24.721H76.2222C74.0446 26.1028 71.4657 26.9071 68.7015 26.9071C65.9367 26.9071 63.3584 26.1028 61.1808 24.721H56.3598C56.2863 24.721 56.2162 24.7284 56.1438 24.7318C55.1148 24.7455 53.4092 24.9695 51.4682 25.9477C48.4019 27.4681 45.0967 30.7943 42.7834 36.6875C40.4428 42.6041 38.8711 51.1589 38.8637 64.0758C38.8637 67.4134 38.9715 71.0441 39.2035 74.9969C39.3448 77.4202 41.3543 79.2899 43.7514 79.2899Z" fill="black"/>
<path d="M79.5229 50.606C78.1097 50.6396 76.8801 49.8273 76.6384 48.6085C76.436 47.5892 76.9804 46.57 77.9341 45.9652C77.7164 45.4476 77.5231 45.0263 77.3743 44.7162C77.2472 44.4511 77.1606 44.2818 77.1081 44.1832C75.2828 44.5286 73.2734 44.8593 71.0501 45.1637C68.555 45.5137 66.8169 47.8196 67.1687 50.3141C67.4896 52.5932 69.442 54.2406 71.6801 54.2406C71.8915 54.2406 72.1042 54.2258 72.3202 54.1956C75.1825 53.7892 77.7546 53.3576 80.0718 52.8959C79.9037 52.087 79.7178 51.322 79.5229 50.606Z" fill="black"/>
<path d="M68.7015 25.6524C75.7852 25.6524 81.5277 19.9099 81.5277 12.8262C81.5277 5.74249 75.7852 0 68.7015 0C61.6178 0 55.8753 5.74249 55.8753 12.8262C55.8753 19.9099 61.6178 25.6524 68.7015 25.6524Z" fill="black"/>
<path d="M79.9017 49.5511C80.9588 49.3521 81.69 48.5221 81.5347 47.6973C81.3794 46.8725 80.3965 46.3652 79.3394 46.5642C78.2822 46.7632 77.5511 47.5932 77.7064 48.418C77.8616 49.2428 78.8445 49.7501 79.9017 49.5511Z" fill="black"/>
<path d="M106.397 31.864C111.516 31.864 115.667 27.7139 115.667 22.5944C115.667 17.4749 111.516 13.3247 106.397 13.3247C101.277 13.3247 97.1273 17.4749 97.1273 22.5944C97.1273 27.7139 101.277 31.864 106.397 31.864Z" fill="black"/>
<path d="M80.0629 76.2554C80.8136 75.5674 81.9795 75.618 82.6675 76.3687C83.3551 77.1193 83.3044 78.2848 82.5542 78.9733L80.4588 80.8931C82.0652 81.5972 84.0036 81.3405 85.38 80.0786C86.756 78.8179 87.18 76.9092 86.6184 75.2473L88.4847 73.5367C88.7542 73.608 89.0355 73.6492 89.3256 73.6492C89.3907 73.6492 89.4558 73.6475 89.5213 73.6434C91.339 73.5367 92.7253 71.9769 92.619 70.1601C92.6112 70.0258 92.6062 69.8993 92.5984 69.7662L94.7778 67.7689C95.0023 67.5633 95.1564 67.3129 95.2545 67.0455V105.946C95.2545 108.76 97.5356 111.039 100.348 111.039C103.161 111.039 105.442 108.76 105.442 105.946V68.7556H107.352V105.946C107.352 108.76 109.633 111.039 112.445 111.039C115.258 111.039 117.539 108.76 117.539 105.946V44.1667C117.783 44.6677 118.029 45.242 118.272 45.9123C119.434 49.1307 120.411 54.4115 120.407 62.6541C120.407 64.9254 120.333 67.422 120.174 70.1617C120.068 71.9794 121.455 73.5383 123.273 73.6438C123.338 73.6475 123.403 73.6496 123.469 73.6496C125.201 73.6496 126.653 72.2966 126.755 70.5453C126.921 67.6894 126.999 65.0671 127 62.6537C126.983 50.2188 124.996 43.3374 122.288 39.1994C120.935 37.1444 119.352 35.8269 117.889 35.0973C116.492 34.3932 115.265 34.2301 114.52 34.2189C114.465 34.216 114.411 34.2107 114.356 34.2107H98.4387C98.3835 34.2107 98.3299 34.216 98.2751 34.2189C97.5307 34.2296 96.3021 34.392 94.9035 35.0969C92.6874 36.196 90.2983 38.6 88.6273 42.8595C86.9352 47.1355 85.7994 53.3181 85.7932 62.6533C85.7932 65.0659 85.8711 67.689 86.0384 70.5461C86.0429 70.6174 86.0524 70.6874 86.0614 70.7574L84.1284 72.529C82.5225 71.8257 80.5829 72.0816 79.2072 73.3435C77.8304 74.6046 77.4069 76.5137 77.968 78.1752L80.0629 76.2554ZM95.2545 44.1469V65.7601C95.1741 65.5467 95.0551 65.3436 94.8915 65.1656C94.2389 64.4537 93.162 64.3795 92.4122 64.9588C92.3961 64.1694 92.3854 63.3953 92.3854 62.6541C92.3714 52.6763 93.8257 47.0716 95.2545 44.1469Z" fill="black"/>
<path d="M54.5376 52.158C54.8418 46.6081 54.8233 40.5713 54.1773 36.0793C54.1773 34.7009 52.994 33.5835 51.534 33.5835C50.0741 33.5835 48.8903 34.7005 48.8903 36.0793C48.8903 36.5634 49.0386 37.0136 49.2914 37.3963C48.4519 37.5705 47.5687 37.7357 46.6551 37.8911C46.4311 37.2258 46.152 36.5552 45.7999 35.8908C45.0514 34.4985 43.9192 33.1312 42.3336 32.1568C40.9016 31.2675 39.1506 30.7576 37.2385 30.6746C37.1026 30.657 36.9651 30.6448 36.8243 30.6448H20.9173C20.7765 30.6448 20.639 30.6566 20.5031 30.6742C18.5906 30.7576 16.8396 31.2675 15.4067 32.1568C13.0546 33.61 11.7626 35.8372 11.082 37.8907C10.1696 37.7349 9.2885 37.5701 8.44982 37.3963C8.70221 37.0136 8.85084 36.5634 8.85084 36.0793C8.85084 34.7009 7.66713 33.5835 6.20715 33.5835C4.74717 33.5835 3.56387 34.7005 3.56387 36.0793C2.91787 40.5713 2.89934 46.6077 3.20361 52.1575C1.71728 52.1972 0.396051 53.2354 0.0728458 54.7433C-0.305942 56.5106 0.830009 58.2475 2.60866 58.6237C2.98416 58.703 3.36212 58.7459 3.73926 58.7717C4.11805 62.2284 4.59895 64.9835 5.06667 66.2605C5.84524 68.3871 11.8346 69.5005 17.7351 70.068V102.653C17.7351 105.445 20.0148 107.708 22.8252 107.708C25.6365 107.708 27.9162 105.445 27.9162 102.653V70.6151C28.2785 70.62 28.5993 70.6221 28.8706 70.6221C29.1415 70.6221 29.4627 70.62 29.8241 70.6151V102.653C29.8241 105.446 32.1039 107.708 34.9143 107.708C37.7256 107.708 40.0053 105.446 40.0053 102.653V70.0684C45.9057 69.5009 51.8955 68.3879 52.6745 66.2609C53.1422 64.9839 53.6227 62.2288 54.0015 58.7721C54.3774 58.7463 54.7541 58.7034 55.1276 58.6249C56.9075 58.2508 58.0442 56.5146 57.6675 54.7474C57.346 53.2382 56.0247 52.1976 54.5376 52.158ZM51.462 34.5873C52.5197 34.5873 53.3802 35.3462 53.491 36.3173C53.2028 36.4121 52.8989 36.5058 52.5811 36.5978C52.5415 35.7432 51.8008 35.0608 50.8872 35.0608C50.4388 35.0608 50.0345 35.2276 49.7303 35.4954C50.0934 34.9516 50.7312 34.5873 51.462 34.5873ZM6.2792 34.5873C7.01042 34.5873 7.64778 34.9516 8.01092 35.4954C7.70706 35.228 7.30234 35.0608 6.85438 35.0608C5.93994 35.0608 5.19965 35.7432 5.16013 36.5978C4.84269 36.5058 4.53884 36.4125 4.25063 36.3173C4.36138 35.347 5.22189 34.5873 6.2792 34.5873ZM51.5147 65.8422C50.8333 67.7014 40.0407 69.395 28.8706 69.395C17.7005 69.395 6.90791 67.701 6.22609 65.8422C5.01273 62.5265 3.56922 47.3785 4.60471 37.7161C10.9634 39.6076 22.593 40.7492 28.8706 40.7492C35.1482 40.7492 46.7774 39.6076 53.1365 37.7161C54.172 47.3785 52.7289 62.5261 51.5147 65.8422Z" fill="black"/>
<path d="M28.8706 28.3934C33.9868 28.3934 38.1344 24.2745 38.1344 19.1935C38.1344 14.1125 33.9868 9.99354 28.8706 9.99354C23.7543 9.99354 19.6067 14.1125 19.6067 19.1935C19.6067 24.2745 23.7543 28.3934 28.8706 28.3934Z" fill="black"/>
</svg>
